<svg xmlns="http://www.w3.org/2000/svg" width="16" height="17" viewBox="0 0 16 17">
  <metadata><?xpacket begin="﻿" id="W5M0MpCehiHzreSzNTczkc9d"?>
<x:xmpmeta xmlns:x="adobe:ns:meta/" x:xmptk="Adobe XMP Core 5.6-c138 79.159824, 2016/09/14-01:09:01        ">
   <rdf:RDF xmlns:rdf="http://www.w3.org/1999/02/22-rdf-syntax-ns#">
      <rdf:Description rdf:about=""/>
   </rdf:RDF>
</x:xmpmeta>
                                                                                                    
                                                                                                    
                                                                                                    
                                                                                                    
                                                                                                    
                                                                                                    
                                                                                                    
                                                                                                    
                                                                                                    
                                                                                                    
                                                                                                    
                                                                                                    
                                                                                                    
                                                                                                    
                                                                                                    
                                                                                                    
                                                                                                    
                                                                                                    
                                                                                                    
                                                                                                    
                           
<?xpacket end="w"?></metadata>
<defs>
    <style>
      .cls-1 {
        fill: #808181;
        fill-rule: evenodd;
      }
    </style>
  </defs>
  <path id="иконка_календарь" class="cls-1" d="M1089.38,4467a0.95,0.95,0,0,0-.95.95v3.33a0.955,0.955,0,0,0,1.91,0v-3.33A0.952,0.952,0,0,0,1089.38,4467Zm7.24,0a0.943,0.943,0,0,0-.95.95v3.33a0.95,0.95,0,1,0,1.9,0v-3.33A0.95,0.95,0,0,0,1096.62,4467Zm-1.71,2.14h-3.82v1.15h3.82v-1.15Zm4.19,0h-0.39v1.15h0.39a0.773,0.773,0,0,1,.76.76v2.3h-13.72v-2.3a0.773,0.773,0,0,1,.76-0.76h0.75v-1.15h-0.75a1.914,1.914,0,0,0-1.9,1.91v2.28h0v1.14h0v7.62a1.906,1.906,0,0,0,1.9,1.9h12.2a1.9,1.9,0,0,0,1.9-1.9v-11.04A1.908,1.908,0,0,0,1099.1,4469.14Zm0,13.71h-12.2a0.773,0.773,0,0,1-.76-0.76v-7.62h13.72v7.62A0.773,0.773,0,0,1,1099.1,4482.85Zm-8.95-6.13a0.955,0.955,0,1,1-.96-0.95A0.952,0.952,0,0,1,1090.15,4476.72Zm3.8,0a0.95,0.95,0,1,1-.95-0.95A0.943,0.943,0,0,1,1093.95,4476.72Zm-3.8,3.81a0.955,0.955,0,1,1-.96-0.96A0.958,0.958,0,0,1,1090.15,4480.53Zm3.8,0a0.95,0.95,0,1,1-.95-0.96A0.95,0.95,0,0,1,1093.95,4480.53Zm3.81-3.81a0.95,0.95,0,1,1-.95-0.95A0.95,0.95,0,0,1,1097.76,4476.72Z" transform="translate(-1085 -4467)"/>
</svg>
