<svg xmlns="http://www.w3.org/2000/svg" width="20" height="21" viewBox="0 0 20 21">
  <metadata><?xpacket begin="﻿" id="W5M0MpCehiHzreSzNTczkc9d"?>
<x:xmpmeta xmlns:x="adobe:ns:meta/" x:xmptk="Adobe XMP Core 5.6-c138 79.159824, 2016/09/14-01:09:01        ">
   <rdf:RDF xmlns:rdf="http://www.w3.org/1999/02/22-rdf-syntax-ns#">
      <rdf:Description rdf:about=""/>
   </rdf:RDF>
</x:xmpmeta>
                                                                                                    
                                                                                                    
                                                                                                    
                                                                                                    
                                                                                                    
                                                                                                    
                                                                                                    
                                                                                                    
                                                                                                    
                                                                                                    
                                                                                                    
                                                                                                    
                                                                                                    
                                                                                                    
                                                                                                    
                                                                                                    
                                                                                                    
                                                                                                    
                                                                                                    
                                                                                                    
                           
<?xpacket end="w"?></metadata>
<defs>
    <style>
      .cls-1 {
        fill: #efbf37;
        fill-rule: evenodd;
      }
    </style>
  </defs>
  <path id="иконка_календарь" class="cls-1" d="M525.48,802.994a1.182,1.182,0,0,0-1.19,1.176v4.115a1.19,1.19,0,0,0,2.379,0V804.17A1.182,1.182,0,0,0,525.48,802.994Zm9.043,0a1.183,1.183,0,0,0-1.19,1.176v4.115a1.19,1.19,0,0,0,2.38,0V804.17A1.182,1.182,0,0,0,534.523,802.994Zm-2.132,2.655h-4.779v1.411h4.779v-1.411Zm5.233,0h-0.493v1.411h0.493a0.959,0.959,0,0,1,.952.941v2.841h-17.15V808a0.96,0.96,0,0,1,.953-0.941h0.939v-1.411h-0.939A2.372,2.372,0,0,0,520,808v2.812h0v1.411h0v9.417a2.372,2.372,0,0,0,2.38,2.352h15.245a2.373,2.373,0,0,0,2.38-2.352V808A2.373,2.373,0,0,0,537.624,805.649Zm0,16.933H522.379a0.96,0.96,0,0,1-.953-0.941v-9.417h17.15v9.417A0.959,0.959,0,0,1,537.624,822.582Zm-11.193-7.576a1.19,1.19,0,1,1-1.189-1.175A1.182,1.182,0,0,1,526.431,815.006Zm4.76,0a1.19,1.19,0,1,1-1.19-1.175A1.182,1.182,0,0,1,531.191,815.006Zm-4.76,4.7a1.19,1.19,0,1,1-1.189-1.177A1.183,1.183,0,0,1,526.431,819.71Zm4.76,0a1.19,1.19,0,1,1-1.19-1.177A1.183,1.183,0,0,1,531.191,819.71Zm4.76-4.7a1.19,1.19,0,1,1-1.19-1.175A1.183,1.183,0,0,1,535.951,815.006Z" transform="translate(-520 -803)"/>
</svg>
